# Wavefront OBJ file automatically generated by Tiled2Unity

# Vertices (Count = 144)
v -32 -80 0
v -48 -80 0
v -48 -64 0
v -32 -64 0
v -64 -80 0
v -64 -64 0
v -80 -80 0
v -80 -64 0
v -96 -80 0
v -96 -64 0
v -112 -80 0
v -112 -64 0
v -128 -80 0
v -128 -64 0
v -144 -80 0
v -144 -64 0
v -160 -80 0
v -160 -64 0
v -176 -80 0
v -176 -64 0
v -192 -80 0
v -192 -64 0
v -208 -80 0
v -208 -64 0
v -32 -96 0
v -48 -96 0
v -64 -96 0
v -80 -96 0
v -96 -96 0
v -112 -96 0
v -128 -96 0
v -144 -96 0
v -160 -96 0
v -176 -96 0
v -192 -96 0
v -208 -96 0
v -32 -112 0
v -48 -112 0
v -64 -112 0
v -80 -112 0
v -96 -112 0
v -112 -112 0
v -128 -112 0
v -144 -112 0
v -160 -112 0
v -176 -112 0
v -192 -112 0
v -208 -112 0
v -32 -128 0
v -48 -128 0
v -64 -128 0
v -80 -128 0
v -96 -128 0
v -112 -128 0
v -128 -128 0
v -144 -128 0
v -160 -128 0
v -176 -128 0
v -192 -128 0
v -208 -128 0
v -32 -144 0
v -48 -144 0
v -64 -144 0
v -80 -144 0
v -96 -144 0
v -112 -144 0
v -128 -144 0
v -144 -144 0
v -160 -144 0
v -176 -144 0
v -192 -144 0
v -208 -144 0
v -32 -160 0
v -48 -160 0
v -64 -160 0
v -80 -160 0
v -96 -160 0
v -112 -160 0
v -128 -160 0
v -144 -160 0
v -160 -160 0
v -176 -160 0
v -192 -160 0
v -208 -160 0
v -32 -176 0
v -48 -176 0
v -64 -176 0
v -80 -176 0
v -96 -176 0
v -112 -176 0
v -128 -176 0
v -144 -176 0
v -160 -176 0
v -176 -176 0
v -192 -176 0
v -208 -176 0
v -32 -192 0
v -48 -192 0
v -64 -192 0
v -80 -192 0
v -96 -192 0
v -112 -192 0
v -128 -192 0
v -144 -192 0
v -160 -192 0
v -176 -192 0
v -192 -192 0
v -208 -192 0
v -32 -208 0
v -48 -208 0
v -64 -208 0
v -80 -208 0
v -96 -208 0
v -112 -208 0
v -128 -208 0
v -144 -208 0
v -160 -208 0
v -176 -208 0
v -192 -208 0
v -208 -208 0
v -32 -48 0
v -48 -48 0
v -48 -32 0
v -32 -32 0
v -64 -48 0
v -64 -32 0
v -80 -48 0
v -80 -32 0
v -96 -48 0
v -96 -32 0
v -112 -48 0
v -112 -32 0
v -128 -48 0
v -128 -32 0
v -144 -48 0
v -144 -32 0
v -160 -48 0
v -160 -32 0
v -176 -48 0
v -176 -32 0
v -192 -48 0
v -192 -32 0
v -208 -48 0
v -208 -32 0

# Texture Coorindates (Count = 224)
vt 0.1251221 0.7730305
vt 0.2498779 0.7730305
vt 0.2498779 0.7767704
vt 0.1251221 0.7767704
vt 0.0001220703 0.7770145
vt 0.1248779 0.7770145
vt 0.1248779 0.7807544
vt 0.0001220703 0.7807544
vt 0.8751221 0.5499229
vt 0.9998779 0.5499229
vt 0.9998779 0.5536628
vt 0.8751221 0.5536628
vt 0.8751221 0.5459388
vt 0.9998779 0.5459388
vt 0.9998779 0.5496787
vt 0.8751221 0.5496787
vt 0.0001220703 0.6056998
vt 0.1248779 0.6056998
vt 0.1248779 0.6094397
vt 0.0001220703 0.6094397
vt 0.1251221 0.6056998
vt 0.2498779 0.6056998
vt 0.2498779 0.6094397
vt 0.1251221 0.6094397
vt 0.2501221 0.6056998
vt 0.3748779 0.6056998
vt 0.3748779 0.6094397
vt 0.2501221 0.6094397
vt 0.0001220703 0.6017157
vt 0.1248779 0.6017157
vt 0.1248779 0.6054556
vt 0.0001220703 0.6054556
vt 0.1251221 0.6017157
vt 0.2498779 0.6017157
vt 0.2498779 0.6054556
vt 0.1251221 0.6054556
vt 0.2501221 0.6017157
vt 0.3748779 0.6017157
vt 0.3748779 0.6054556
vt 0.2501221 0.6054556
vt 0.0001220703 0.5977316
vt 0.1248779 0.5977316
vt 0.1248779 0.6014715
vt 0.0001220703 0.6014715
vt 0.1251221 0.5977316
vt 0.2498779 0.5977316
vt 0.2498779 0.6014715
vt 0.1251221 0.6014715
vt 0.2501221 0.5977316
vt 0.3748779 0.5977316
vt 0.3748779 0.6014715
vt 0.2501221 0.6014715
vt 0.6251221 0.5698432
vt 0.7498779 0.5698432
vt 0.7498779 0.5735831
vt 0.6251221 0.5735831
vt 0.7501221 0.5698432
vt 0.8748779 0.5698432
vt 0.8748779 0.5735831
vt 0.7501221 0.5735831
vt 0.8751221 0.5698432
vt 0.9998779 0.5698432
vt 0.9998779 0.5735831
vt 0.8751221 0.5735831
vt 0.7501221 0.9204408
vt 0.8748779 0.9204408
vt 0.8748779 0.9241807
vt 0.7501221 0.9241807
vt 0.6251221 0.5658591
vt 0.7498779 0.5658591
vt 0.7498779 0.569599
vt 0.6251221 0.569599
vt 0.7501221 0.5658591
vt 0.8748779 0.5658591
vt 0.8748779 0.569599
vt 0.7501221 0.569599
vt 0.8751221 0.5658591
vt 0.9998779 0.5658591
vt 0.9998779 0.569599
vt 0.8751221 0.569599
vt 0.0001220703 0.9802018
vt 0.1248779 0.9802018
vt 0.1248779 0.9839417
vt 0.0001220703 0.9839417
vt 0.0001220703 0.9762177
vt 0.1248779 0.9762177
vt 0.1248779 0.9799576
vt 0.0001220703 0.9799576
vt 0.3751221 0.4463372
vt 0.4998779 0.4463372
vt 0.4998779 0.4500771
vt 0.3751221 0.4500771
vt 0.5001221 0.4463372
vt 0.6248779 0.4463372
vt 0.6248779 0.4500771
vt 0.5001221 0.4500771
vt 0.3751221 0.4423532
vt 0.4998779 0.4423532
vt 0.4998779 0.4460931
vt 0.3751221 0.4460931
vt 0.5001221 0.4423532
vt 0.6248779 0.4423532
vt 0.6248779 0.4460931
vt 0.5001221 0.4460931
vt 0.0001220703 0.561875
vt 0.1248779 0.561875
vt 0.1248779 0.565615
vt 0.0001220703 0.565615
vt 0.1251221 0.561875
vt 0.2498779 0.561875
vt 0.2498779 0.565615
vt 0.1251221 0.565615
vt 0.1251221 0.4025125
vt 0.2498779 0.4025125
vt 0.2498779 0.4062524
vt 0.1251221 0.4062524
vt 0.2501221 0.4025125
vt 0.3748779 0.4025125
vt 0.3748779 0.4062524
vt 0.2501221 0.4062524
vt 0.2501221 0.4184488
vt 0.3748779 0.4184488
vt 0.3748779 0.4221887
vt 0.2501221 0.4221887
vt 0.3751221 0.4184488
vt 0.4998779 0.4184488
vt 0.4998779 0.4221887
vt 0.3751221 0.4221887
vt 0.0001220703 0.3268153
vt 0.1248779 0.3268153
vt 0.1248779 0.3305552
vt 0.0001220703 0.3305552
vt 0.0001220703 0.557891
vt 0.1248779 0.557891
vt 0.1248779 0.5616309
vt 0.0001220703 0.5616309
vt 0.1251221 0.557891
vt 0.2498779 0.557891
vt 0.2498779 0.5616309
vt 0.1251221 0.5616309
vt 0.0001220703 0.5539069
vt 0.1248779 0.5539069
vt 0.1248779 0.5576469
vt 0.0001220703 0.5576469
vt 0.1251221 0.5539069
vt 0.2498779 0.5539069
vt 0.2498779 0.5576469
vt 0.1251221 0.5576469
vt 0.2501221 0.3547038
vt 0.3748779 0.3547038
vt 0.3748779 0.3584437
vt 0.2501221 0.3584437
vt 0.3751221 0.1515165
vt 0.4998779 0.1515165
vt 0.4998779 0.1552564
vt 0.3751221 0.1552564
vt 0.5001221 0.1515165
vt 0.6248779 0.1515165
vt 0.6248779 0.1552564
vt 0.5001221 0.1552564
vt 0.6251221 0.1515165
vt 0.7498779 0.1515165
vt 0.7498779 0.1552564
vt 0.6251221 0.1552564
vt 0.3751221 0.3547038
vt 0.4998779 0.3547038
vt 0.4998779 0.3584437
vt 0.3751221 0.3584437
vt 0.3751221 0.1475324
vt 0.4998779 0.1475324
vt 0.4998779 0.1512724
vt 0.3751221 0.1512724
vt 0.5001221 0.1475324
vt 0.6248779 0.1475324
vt 0.6248779 0.1512724
vt 0.5001221 0.1512724
vt 0.6251221 0.1475324
vt 0.7498779 0.1475324
vt 0.7498779 0.1512724
vt 0.6251221 0.1512724
vt 0.6251221 0.3029109
vt 0.7498779 0.3029109
vt 0.7498779 0.3066508
vt 0.6251221 0.3066508
vt 0.2501221 0.4264169
vt 0.3748779 0.4264169
vt 0.3748779 0.4301568
vt 0.2501221 0.4301568
vt 0.3751221 0.4264169
vt 0.4998779 0.4264169
vt 0.4998779 0.4301568
vt 0.3751221 0.4301568
vt 0.0001220703 0.3347834
vt 0.1248779 0.3347834
vt 0.1248779 0.3385234
vt 0.0001220703 0.3385234
vt 0.1251221 0.4064966
vt 0.2498779 0.4064966
vt 0.2498779 0.4102365
vt 0.1251221 0.4102365
vt 0.2501221 0.4064966
vt 0.3748779 0.4064966
vt 0.3748779 0.4102365
vt 0.2501221 0.4102365
vt 0.2501221 0.4224328
vt 0.3748779 0.4224328
vt 0.3748779 0.4261728
vt 0.2501221 0.4261728
vt 0.3751221 0.4224328
vt 0.4998779 0.4224328
vt 0.4998779 0.4261728
vt 0.3751221 0.4261728
vt 0.0001220703 0.3307994
vt 0.1248779 0.3307994
vt 0.1248779 0.3345393
vt 0.0001220703 0.3345393
vt 0.6251221 0.3108791
vt 0.7498779 0.3108791
vt 0.7498779 0.314619
vt 0.6251221 0.314619
vt 0.6251221 0.306895
vt 0.7498779 0.306895
vt 0.7498779 0.3106349
vt 0.6251221 0.3106349

# Normal
vn 0 0 -1

# Groups (Count = 6)
g mesh_[00]_[00]
f  1/1/1  2/2/1  3/3/1  4/4/1 
f  2/1/1  5/2/1  6/3/1  3/4/1 
f  5/1/1  7/2/1  8/3/1  6/4/1 
f  7/1/1  9/2/1  10/3/1  8/4/1 
f  9/1/1  11/2/1  12/3/1  10/4/1 
f  11/1/1  13/2/1  14/3/1  12/4/1 
f  13/1/1  15/2/1  16/3/1  14/4/1 
f  15/1/1  17/2/1  18/3/1  16/4/1 
f  17/1/1  19/2/1  20/3/1  18/4/1 
f  19/1/1  21/2/1  22/3/1  20/4/1 
f  21/1/1  23/2/1  24/3/1  22/4/1 
f  25/1/1  26/2/1  2/3/1  1/4/1 
f  26/5/1  27/6/1  5/7/1  2/8/1 
f  27/5/1  28/6/1  7/7/1  5/8/1 
f  28/5/1  29/6/1  9/7/1  7/8/1 
f  29/5/1  30/6/1  11/7/1  9/8/1 
f  30/5/1  31/6/1  13/7/1  11/8/1 
f  31/5/1  32/6/1  15/7/1  13/8/1 
f  32/5/1  33/6/1  17/7/1  15/8/1 
f  33/5/1  34/6/1  19/7/1  17/8/1 
f  34/1/1  35/2/1  21/3/1  19/4/1 
f  35/1/1  36/2/1  23/3/1  21/4/1 
f  37/1/1  38/2/1  26/3/1  25/4/1 
f  38/5/1  39/6/1  27/7/1  26/8/1 
f  39/5/1  40/6/1  28/7/1  27/8/1 
f  40/5/1  41/6/1  29/7/1  28/8/1 
f  41/5/1  42/6/1  30/7/1  29/8/1 
f  42/5/1  43/6/1  31/7/1  30/8/1 
f  43/5/1  44/6/1  32/7/1  31/8/1 
f  44/5/1  45/6/1  33/7/1  32/8/1 
f  45/5/1  46/6/1  34/7/1  33/8/1 
f  46/5/1  47/6/1  35/7/1  34/8/1 
f  47/5/1  48/6/1  36/7/1  35/8/1 
f  49/1/1  50/2/1  38/3/1  37/4/1 
f  50/5/1  51/6/1  39/7/1  38/8/1 
f  51/5/1  52/6/1  40/7/1  39/8/1 
f  52/5/1  53/6/1  41/7/1  40/8/1 
f  53/5/1  54/6/1  42/7/1  41/8/1 
f  54/5/1  55/6/1  43/7/1  42/8/1 
f  55/5/1  56/6/1  44/7/1  43/8/1 
f  56/5/1  57/6/1  45/7/1  44/8/1 
f  57/5/1  58/6/1  46/7/1  45/8/1 
f  58/5/1  59/6/1  47/7/1  46/8/1 
f  59/5/1  60/6/1  48/7/1  47/8/1 
f  61/1/1  62/2/1  50/3/1  49/4/1 
f  62/5/1  63/6/1  51/7/1  50/8/1 
f  63/5/1  64/6/1  52/7/1  51/8/1 
f  64/5/1  65/6/1  53/7/1  52/8/1 
f  65/5/1  66/6/1  54/7/1  53/8/1 
f  66/5/1  67/6/1  55/7/1  54/8/1 
f  67/5/1  68/6/1  56/7/1  55/8/1 
f  68/5/1  69/6/1  57/7/1  56/8/1 
f  69/5/1  70/6/1  58/7/1  57/8/1 
f  70/5/1  71/6/1  59/7/1  58/8/1 
f  71/5/1  72/6/1  60/7/1  59/8/1 
f  73/1/1  74/2/1  62/3/1  61/4/1 
f  74/5/1  75/6/1  63/7/1  62/8/1 
f  75/5/1  76/6/1  64/7/1  63/8/1 
f  76/5/1  77/6/1  65/7/1  64/8/1 
f  77/5/1  78/6/1  66/7/1  65/8/1 
f  78/5/1  79/6/1  67/7/1  66/8/1 
f  79/5/1  80/6/1  68/7/1  67/8/1 
f  80/5/1  81/6/1  69/7/1  68/8/1 
f  81/5/1  82/6/1  70/7/1  69/8/1 
f  82/5/1  83/6/1  71/7/1  70/8/1 
f  83/5/1  84/6/1  72/7/1  71/8/1 
f  85/1/1  86/2/1  74/3/1  73/4/1 
f  86/5/1  87/6/1  75/7/1  74/8/1 
f  87/5/1  88/6/1  76/7/1  75/8/1 
f  88/5/1  89/6/1  77/7/1  76/8/1 
f  89/5/1  90/6/1  78/7/1  77/8/1 
f  90/5/1  91/6/1  79/7/1  78/8/1 
f  91/5/1  92/6/1  80/7/1  79/8/1 
f  92/5/1  93/6/1  81/7/1  80/8/1 
f  93/5/1  94/6/1  82/7/1  81/8/1 
f  94/5/1  95/6/1  83/7/1  82/8/1 
f  95/5/1  96/6/1  84/7/1  83/8/1 
f  97/1/1  98/2/1  86/3/1  85/4/1 
f  98/5/1  99/6/1  87/7/1  86/8/1 
f  99/5/1  100/6/1  88/7/1  87/8/1 
f  100/5/1  101/6/1  89/7/1  88/8/1 
f  101/5/1  102/6/1  90/7/1  89/8/1 
f  102/5/1  103/6/1  91/7/1  90/8/1 
f  103/5/1  104/6/1  92/7/1  91/8/1 
f  104/5/1  105/6/1  93/7/1  92/8/1 
f  105/5/1  106/6/1  94/7/1  93/8/1 
f  106/5/1  107/6/1  95/7/1  94/8/1 
f  107/5/1  108/6/1  96/7/1  95/8/1 
g mesh_[01]_[00]
f  17/9/1  19/10/1  20/11/1  18/12/1 
f  33/13/1  34/14/1  19/15/1  17/16/1 
f  39/17/1  40/18/1  28/19/1  27/20/1 
f  40/21/1  41/22/1  29/23/1  28/24/1 
f  41/21/1  42/22/1  30/23/1  29/24/1 
f  42/21/1  43/22/1  31/23/1  30/24/1 
f  43/21/1  44/22/1  32/23/1  31/24/1 
f  44/21/1  45/22/1  33/23/1  32/24/1 
f  45/25/1  46/26/1  34/27/1  33/28/1 
f  51/29/1  52/30/1  40/31/1  39/32/1 
f  52/33/1  53/34/1  41/35/1  40/36/1 
f  53/33/1  54/34/1  42/35/1  41/36/1 
f  54/33/1  55/34/1  43/35/1  42/36/1 
f  55/33/1  56/34/1  44/35/1  43/36/1 
f  56/33/1  57/34/1  45/35/1  44/36/1 
f  57/37/1  58/38/1  46/39/1  45/40/1 
f  63/29/1  64/30/1  52/31/1  51/32/1 
f  64/33/1  65/34/1  53/35/1  52/36/1 
f  65/33/1  66/34/1  54/35/1  53/36/1 
f  66/33/1  67/34/1  55/35/1  54/36/1 
f  67/33/1  68/34/1  56/35/1  55/36/1 
f  68/33/1  69/34/1  57/35/1  56/36/1 
f  69/37/1  70/38/1  58/39/1  57/40/1 
f  75/41/1  76/42/1  64/43/1  63/44/1 
f  76/45/1  77/46/1  65/47/1  64/48/1 
f  77/45/1  78/46/1  66/47/1  65/48/1 
f  78/45/1  79/46/1  67/47/1  66/48/1 
f  79/45/1  80/46/1  68/47/1  67/48/1 
f  80/45/1  81/46/1  69/47/1  68/48/1 
f  81/49/1  82/50/1  70/51/1  69/52/1 
f  101/53/1  102/54/1  90/55/1  89/56/1 
f  102/57/1  103/58/1  91/59/1  90/60/1 
f  103/61/1  104/62/1  92/63/1  91/64/1 
f  109/65/1  110/66/1  98/67/1  97/68/1 
f  110/65/1  111/66/1  99/67/1  98/68/1 
f  111/65/1  112/66/1  100/67/1  99/68/1 
f  112/65/1  113/66/1  101/67/1  100/68/1 
f  113/69/1  114/70/1  102/71/1  101/72/1 
f  114/73/1  115/74/1  103/75/1  102/76/1 
f  115/77/1  116/78/1  104/79/1  103/80/1 
f  116/65/1  117/66/1  105/67/1  104/68/1 
f  117/65/1  118/66/1  106/67/1  105/68/1 
f  118/65/1  119/66/1  107/67/1  106/68/1 
f  119/65/1  120/66/1  108/67/1  107/68/1 
g mesh_[02]_[00]
f  121/81/1  122/82/1  123/83/1  124/84/1 
f  122/81/1  125/82/1  126/83/1  123/84/1 
f  125/81/1  127/82/1  128/83/1  126/84/1 
f  127/81/1  129/82/1  130/83/1  128/84/1 
f  129/81/1  131/82/1  132/83/1  130/84/1 
f  131/81/1  133/82/1  134/83/1  132/84/1 
f  133/81/1  135/82/1  136/83/1  134/84/1 
f  135/81/1  137/82/1  138/83/1  136/84/1 
f  137/81/1  139/82/1  140/83/1  138/84/1 
f  139/81/1  141/82/1  142/83/1  140/84/1 
f  141/81/1  143/82/1  144/83/1  142/84/1 
f  4/85/1  3/86/1  122/87/1  121/88/1 
f  3/85/1  6/86/1  125/87/1  122/88/1 
f  6/85/1  8/86/1  127/87/1  125/88/1 
f  8/85/1  10/86/1  129/87/1  127/88/1 
f  10/85/1  12/86/1  131/87/1  129/88/1 
f  12/85/1  14/86/1  133/87/1  131/88/1 
f  14/85/1  16/86/1  135/87/1  133/88/1 
f  16/85/1  18/86/1  137/87/1  135/88/1 
f  18/85/1  20/86/1  139/87/1  137/88/1 
f  20/85/1  22/86/1  141/87/1  139/88/1 
f  22/85/1  24/86/1  143/87/1  141/88/1 
g mesh_[03]_[00]
f  133/89/1  135/90/1  136/91/1  134/92/1 
f  135/93/1  137/94/1  138/95/1  136/96/1 
f  14/97/1  16/98/1  135/99/1  133/100/1 
f  16/101/1  18/102/1  137/103/1  135/104/1 
g mesh_[04]_[00]
f  20/105/1  22/106/1  141/107/1  139/108/1 
f  22/109/1  24/110/1  143/111/1  141/112/1 
f  1/113/1  2/114/1  3/115/1  4/116/1 
f  2/117/1  5/118/1  6/119/1  3/120/1 
f  5/121/1  7/122/1  8/123/1  6/124/1 
f  7/125/1  9/126/1  10/127/1  8/128/1 
f  11/129/1  13/130/1  14/131/1  12/132/1 
f  19/133/1  21/134/1  22/135/1  20/136/1 
f  21/137/1  23/138/1  24/139/1  22/140/1 
f  34/141/1  35/142/1  21/143/1  19/144/1 
f  35/145/1  36/146/1  23/147/1  21/148/1 
f  52/149/1  53/150/1  41/151/1  40/152/1 
f  53/153/1  54/154/1  42/155/1  41/156/1 
f  54/157/1  55/158/1  43/159/1  42/160/1 
f  55/161/1  56/162/1  44/163/1  43/164/1 
f  56/165/1  57/166/1  45/167/1  44/168/1 
f  64/149/1  65/150/1  53/151/1  52/152/1 
f  65/169/1  66/170/1  54/171/1  53/172/1 
f  66/173/1  67/174/1  55/175/1  54/176/1 
f  67/177/1  68/178/1  56/179/1  55/180/1 
f  68/165/1  69/166/1  57/167/1  56/168/1 
f  85/181/1  86/182/1  74/183/1  73/184/1 
f  95/181/1  96/182/1  84/183/1  83/184/1 
g mesh_[05]_[00]
f  125/185/1  127/186/1  128/187/1  126/188/1 
f  127/189/1  129/190/1  130/191/1  128/192/1 
f  131/193/1  133/194/1  134/195/1  132/196/1 
f  4/197/1  3/198/1  122/199/1  121/200/1 
f  3/201/1  6/202/1  125/203/1  122/204/1 
f  6/205/1  8/206/1  127/207/1  125/208/1 
f  8/209/1  10/210/1  129/211/1  127/212/1 
f  12/213/1  14/214/1  133/215/1  131/216/1 
f  61/217/1  62/218/1  50/219/1  49/220/1 
f  71/217/1  72/218/1  60/219/1  59/220/1 
f  73/221/1  74/222/1  62/223/1  61/224/1 
f  83/221/1  84/222/1  72/223/1  71/224/1 
